<svg width="200" height="200" viewBox="0 0 200 200" xmlns="http://www.w3.org/2000/svg">
  <!-- Background -->
  <rect width="200" height="200" fill="white"/>
  
  <!-- Main flowing dark blue shape -->
  <path d="M30 50 Q60 30 90 40 Q120 50 140 60 Q160 80 170 100 Q160 120 140 140 Q120 150 90 160 Q60 170 30 150 Z" 
        fill="#1F4287" opacity="0.9"/>
  
  <!-- Gold circuitry lines -->
  <path d="M40 60 Q70 45 100 55 Q130 65 150 75" stroke="#FFC300" stroke-width="2" fill="none"/>
  <path d="M50 80 Q80 70 110 80 Q140 90 160 100" stroke="#FFC300" stroke-width="2" fill="none"/>
  <path d="M60 100 Q90 95 120 105 Q150 115 170 125" stroke="#FFC300" stroke-width="2" fill="none"/>
  
  <!-- Gold nodes/dots along circuitry -->
  <circle cx="70" cy="45" r="3" fill="#FFC300"/>
  <circle cx="100" cy="55" r="3" fill="#FFC300"/>
  <circle cx="130" cy="65" r="3" fill="#FFC300"/>
  <circle cx="80" cy="70" r="3" fill="#FFC300"/>
  <circle cx="110" cy="80" r="3" fill="#FFC300"/>
  <circle cx="140" cy="90" r="3" fill="#FFC300"/>
  <circle cx="90" cy="95" r="3" fill="#FFC300"/>
  <circle cx="120" cy="105" r="3" fill="#FFC300"/>
  <circle cx="150" cy="115" r="3" fill="#FFC300"/>
  
  <!-- Central AI glow and text -->
  <circle cx="100" cy="100" r="25" fill="#FFC300" opacity="0.8"/>
  <circle cx="100" cy="100" r="20" fill="#FFC300" opacity="0.9"/>
  <text x="100" y="105" font-family="Arial, sans-serif" font-size="16" font-weight="bold" text-anchor="middle" fill="white">AI</text>
  
  <!-- Arrowhead -->
  <polygon points="160,80 165,85 160,90" fill="white"/>
  
  <!-- Dot patterns at ends -->
  <circle cx="25" cy="45" r="2" fill="#1F4287"/>
  <circle cx="35" cy="40" r="2" fill="#1F4287"/>
  <circle cx="30" cy="50" r="2" fill="#1F4287"/>
  <circle cx="175" cy="155" r="2" fill="#1F4287"/>
  <circle cx="165" cy="150" r="2" fill="#1F4287"/>
  <circle cx="170" cy="160" r="2" fill="#1F4287"/>
  
  <!-- Gold accent dots -->
  <circle cx="20" cy="50" r="2" fill="#FFC300"/>
  <circle cx="180" cy="150" r="2" fill="#FFC300"/>
</svg> 