<svg width="512" height="512" viewBox="0 0 512 512" xmlns="http://www.w3.org/2000/svg">
  <!-- Background -->
  <rect width="512" height="512" fill="white"/>
  
  <!-- Main flowing dark blue shape -->
  <path d="M76.8 128 Q153.6 76.8 230.4 102.4 Q307.2 128 358.4 153.6 Q409.6 204.8 435.2 256 Q409.6 307.2 358.4 358.4 Q307.2 384 230.4 409.6 Q153.6 435.2 76.8 384 Z" 
        fill="#1F4287" opacity="0.9"/>
  
  <!-- Gold circuitry lines -->
  <path d="M102.4 153.6 Q179.2 115.2 256 140.8 Q332.8 166.4 384 192" stroke="#FFC300" stroke-width="5" fill="none"/>
  <path d="M128 204.8 Q204.8 179.2 281.6 204.8 Q358.4 230.4 409.6 256" stroke="#FFC300" stroke-width="5" fill="none"/>
  <path d="M153.6 256 Q230.4 243.2 307.2 268.8 Q384 294.4 435.2 320" stroke="#FFC300" stroke-width="5" fill="none"/>
  
  <!-- Gold nodes/dots along circuitry -->
  <circle cx="179.2" cy="115.2" r="8" fill="#FFC300"/>
  <circle cx="256" cy="140.8" r="8" fill="#FFC300"/>
  <circle cx="332.8" cy="166.4" r="8" fill="#FFC300"/>
  <circle cx="204.8" cy="179.2" r="8" fill="#FFC300"/>
  <circle cx="281.6" cy="204.8" r="8" fill="#FFC300"/>
  <circle cx="358.4" cy="230.4" r="8" fill="#FFC300"/>
  <circle cx="230.4" cy="243.2" r="8" fill="#FFC300"/>
  <circle cx="307.2" cy="268.8" r="8" fill="#FFC300"/>
  <circle cx="384" cy="294.4" r="8" fill="#FFC300"/>
  
  <!-- Central AI glow and text -->
  <circle cx="256" cy="256" r="64" fill="#FFC300" opacity="0.8"/>
  <circle cx="256" cy="256" r="51.2" fill="#FFC300" opacity="0.9"/>
  <text x="256" y="268.8" font-family="Arial, sans-serif" font-size="41" font-weight="bold" text-anchor="middle" fill="white">AI</text>
  
  <!-- Arrowhead -->
  <polygon points="409.6,204.8 422.4,217.6 409.6,230.4" fill="white"/>
  
  <!-- Dot patterns at ends -->
  <circle cx="64" cy="115.2" r="5" fill="#1F4287"/>
  <circle cx="89.6" cy="102.4" r="5" fill="#1F4287"/>
  <circle cx="76.8" cy="128" r="5" fill="#1F4287"/>
  <circle cx="448" cy="396.8" r="5" fill="#1F4287"/>
  <circle cx="422.4" cy="384" r="5" fill="#1F4287"/>
  <circle cx="435.2" cy="409.6" r="5" fill="#1F4287"/>
  
  <!-- Gold accent dots -->
  <circle cx="51.2" cy="128" r="5" fill="#FFC300"/>
  <circle cx="460.8" cy="384" r="5" fill="#FFC300"/>
</svg> 